<?xml version="1.0" encoding="utf-8"?>
<!-- Generator: Adobe Illustrator 21.0.0, SVG Export Plug-In . SVG Version: 6.00 Build 0)  -->
<svg version="1.1"
	 id="Слой_1" xmlns:cc="http://creativecommons.org/ns#" xmlns:dc="http://purl.org/dc/elements/1.1/" xmlns:inkscape="http://www.inkscape.org/namespaces/inkscape" xmlns:rdf="http://www.w3.org/1999/02/22-rdf-syntax-ns#" xmlns:sodipodi="http://sodipodi.sourceforge.net/DTD/sodipodi-0.dtd" xmlns:svg="http://www.w3.org/2000/svg"
	 xmlns="http://www.w3.org/2000/svg" xmlns:xlink="http://www.w3.org/1999/xlink" x="0px" y="0px" viewBox="0 0 78 78"
	 style="enable-background:new 0 0 78 78;" xml:space="preserve">
<style type="text/css">
	.st0{fill:#585A5E;}
</style>
<g transform="translate(0,-952.36218)">
	<path class="st0" d="M39,952.4c-21.5,0-39,17.5-39,39c0,21.5,17.5,39,39,39s39-17.5,39-39C78,969.8,60.5,952.4,39,952.4L39,952.4z
		 M28.4,972.3c0.8,0,1.6,0.2,2.3,0.6l25,14.5c1.4,0.8,2.3,2.2,2.3,3.9s-0.9,3.1-2.3,3.9l-25,14.5c-3.1,1.7-6.6-0.5-6.7-4v-28.9
		C24.1,974.2,26.1,972.4,28.4,972.3z"/>
</g>
</svg>
